Coordinates
version=1
nRows=16
nColumns=33
inDegrees=yes

Units are S.I. units (second, meters, Newtons, ...)
Angles are in degrees.

endheader
time	ground_thorax_rot_x	ground_thorax_rot_y	ground_thorax_rot_z	ground_thorax_tx	ground_thorax_ty	ground_thorax_tz	clav_prot_r	clav_elev_r	scapula_abduction_r	scapula_elevation_r	scapula_upward_rot_r	scapula_winging_r	shoulder_elv_r	plane_of_elev_r	axial_rot_r	elbow_flexion_r	pro_sup_r	wrist_flex_r	wrist_dev_r	clav_prot_l	clav_elev_l	scapula_abduction_l	scapula_elevation_l	scapula_upward_rot_l	scapula_winging_l	shoulder_elv_l	plane_of_elev_l	axial_rot_l	elbow_flexion_l	pro_sup_l	wrist_flex_l	wrist_dev_l
      9.82000000	    -38.08113546	    -14.45414386	     23.99155205	   -266.37590879	    828.74667645	      7.13209868	      7.45331264	    -45.00000000	     35.97154267	    -45.00000000	    -45.00000000	   2055.31575586	  -1727.81132385	     33.02691101	     68.22816134	   2179.77367542	     91.89295132	     12.18772520	      2.43679165	     13.49401834	     37.04867464	    -34.05025424	    -45.00000000	    -45.00000000	  -2073.11335541	   2065.39357585	    137.33234160	    163.55113834	   1451.14452075	   -331.43457687	      1.31958315	    -18.12996640
      9.83000000	    -38.04295971	    -14.56375247	     24.08338028	   -266.32257533	    828.62514105	      7.17287143	      7.60016502	    -45.00000000	     36.00178210	    -45.00000000	    -45.00000000	   2055.38285479	  -1727.75407412	     32.94437792	     68.26308931	   2179.76866089	     91.88211079	     12.15798153	      2.51620766	     13.53621623	     37.01331183	    -33.94155713	    -45.00000000	    -45.00000000	  -2073.14144603	   2065.43229272	    137.29192234	    163.64060705	   1451.12211610	   -331.44204909	      1.26310054	    -18.05254214
      9.84000000	    -38.06925412	    -14.64040693	     24.14095847	   -266.24380091	    828.50179510	      7.21382701	      7.56968323	    -45.00000000	     35.87706669	    -45.00000000	    -45.00000000	   2055.23347753	  -1727.85068068	     33.13595119	     68.11974410	   2179.70382856	     91.90433116	     12.12858913	      2.44255583	     13.42460041	     37.03268758	    -34.05398406	    -45.00000000	    -45.00000000	  -2073.12358447	   2065.36257721	    137.41540970	    163.67795494	   1451.10522255	   -331.42739632	      1.32682534	    -18.11098054
      9.85000000	    -38.04729929	    -14.63782049	     24.13184232	   -266.14124178	    828.36745682	      7.25508291	      7.56438283	    -45.00000000	     35.99316412	    -45.00000000	    -44.71025952	   2055.39217343	  -1727.78017118	     32.87454690	     68.21734753	   2179.77690397	     91.89218271	     12.20363617	      2.48173719	     13.55061417	     37.01601586	    -33.88687057	    -45.00000000	    -45.00000000	  -2073.14844614	   2065.42036272	    137.22945010	    163.78027441	   1451.12854841	   -331.45453902	      1.24342822	    -18.03836106
      9.86000000	    -38.02032238	    -14.68728433	     24.14748409	   -266.02442622	    828.22887305	      7.29302507	      7.58507335	    -45.00000000	     35.92772616	    -45.00000000	    -45.00000000	   2055.25693464	  -1727.87502664	     33.21632934	     68.16427281	   2179.71550934	     91.90797362	     12.09526896	      2.42233579	     13.39049257	     37.02440746	    -34.08017187	    -45.00000000	    -45.00000000	  -2073.22679675	   2065.23713390	    137.48658782	    163.87969457	   1451.04975736	   -331.44268576	      1.33694264	    -18.09148969
      9.87000000	    -37.97697310	    -14.75432064	     24.19951151	   -265.89315446	    828.08251961	      7.32731870	      7.54720308	    -45.00000000	     36.00090830	    -45.00000000	    -45.00000000	   2055.47494901	  -1727.74045263	     32.98686950	     67.98735340	   2179.78354555	     91.92846893	     12.18559415	      2.45966346	     13.54684181	     37.00967457	    -33.80336022	    -45.00000000	    -45.00000000	  -2073.15564197	   2065.40585855	    137.15973935	    163.86487589	   1451.07080567	   -331.47101041	      1.26933138	    -18.04643073
      9.88000000	    -37.99005880	    -14.66606202	     24.20229067	   -265.75124655	    827.93357606	      7.35522582	      7.60474923	    -45.00000000	     35.97420992	    -45.00000000	    -45.00000000	   2055.27894911	  -1727.86147321	     33.17229726	     67.88189256	   2179.74875332	     91.95648888	     12.12768357	      2.40017482	     13.39822224	     37.00734639	    -34.06063602	    -45.00000000	    -45.00000000	  -2073.24886256	   2065.25561774	    137.39484504	    163.98122618	   1451.17457987	   -331.49098998	      1.29602928	    -18.09455910
      9.89000000	    -37.91651321	    -14.84864156	     24.30843528	   -265.59785257	    827.78396832	      7.37497658	      7.52748942	    -45.00000000	     36.02752377	    -45.00000000	    -45.00000000	   2055.50678399	  -1727.68889152	     32.98943884	     67.82935690	   2179.79542995	     91.97971435	     12.18133120	      2.42561364	     13.59586425	     37.00001798	    -33.68862510	    -45.00000000	    -45.00000000	  -2073.11748938	   2065.45854608	    137.02394785	    164.05062395	   1451.11611006	   -331.52200963	      1.25200649	    -18.05434369
      9.90000000	    -37.97239637	    -14.74396324	     24.26815202	   -265.42791285	    827.63434206	      7.38482146	      7.57902157	    -45.00000000	     35.99899908	    -45.00000000	    -45.00000000	   2055.36292865	  -1727.82085406	     33.16479521	     67.68410864	   2179.79331332	     92.02923873	     12.13197497	      2.38849647	     13.47499725	     37.00106781	    -33.92463938	    -45.00000000	    -45.00000000	  -2073.17777559	   2065.42138275	    137.18068247	    164.15026339	   1451.13729670	   -331.54072832	      1.28004831	    -18.08776797
      9.91000000	    -37.85374991	    -15.01430349	     24.73956232	   -265.25248158	    827.50054169	      7.38262443	      7.58437517	    -45.00000000	     35.82009963	    -45.00000000	    -45.00000000	   2055.31067535	  -1727.70439875	     33.01288804	     67.47949881	   2179.66683080	     92.08453994	     12.07980216	      2.42785236	     13.48904632	     37.01005910	    -33.94439364	    -45.00000000	    -45.00000000	  -2073.15135595	   2065.33528785	    137.30768506	    164.39217713	   1451.06411894	   -331.57301153	      1.22041979	    -18.03869879
      9.92000000	    -37.99469358	    -14.61932972	     24.21624094	   -265.04924564	    827.37200627	      7.36808692	      7.64163160	    -45.00000000	     35.97826461	    -45.00000000	    -44.44175564	   2055.26852159	  -1727.92638480	     33.11819435	     67.51862928	   2179.77486458	     92.12022923	     12.13636615	      2.37779294	     13.45509535	     36.97801558	    -33.91540646	    -45.00000000	    -45.00000000	  -2073.23108544	   2065.52020891	    137.00565974	    164.33066516	   1451.17709192	   -331.59111084	      1.27712431	    -18.12012588
      9.93000000	    -37.91106498	    -14.84456943	     24.48180124	   -264.82138298	    827.26089396	      7.34089110	      7.58487732	    -45.00000000	     35.96253831	    -45.00000000	    -44.88797124	   2055.36849022	  -1727.78071232	     33.10017946	     67.55092167	   2179.87415554	     92.15966566	     12.07772531	      2.35779519	     13.51440397	     37.01363659	    -33.89065567	    -45.00000000	    -45.00000000	  -2073.23897496	   2065.51198318	    137.14086729	    164.64013380	   1451.16804978	   -331.64100402	      1.25061462	    -18.11996104
      9.94000000	    -37.78849303	    -14.87704109	     24.43880968	   -264.57696320	    827.17695120	      7.30433403	      7.61304525	    -45.00000000	     35.98070630	    -45.00000000	    -45.00000000	   2055.31816725	  -1727.83226544	     33.37855923	     67.05010929	   2179.63501312	     92.26090791	     11.96498950	      2.42145654	     13.43344537	     36.92725510	    -33.93260011	    -45.00000000	    -45.00000000	  -2073.16325522	   2065.14163854	    137.07790574	    164.67057766	   1451.19232555	   -331.66128196	      1.28997291	    -18.16395007
      9.95000000	    -37.84249512	    -14.88540849	     24.47586118	   -264.28797445	    827.11379358	      7.25779364	      7.63323779	    -45.00000000	     35.99505765	    -45.00000000	    -44.92734976	   2055.48253591	  -1727.62068493	     33.16510549	     67.02591236	   2179.91047748	     92.30465907	     12.17803902	      2.31347887	     13.55779256	     37.08071554	    -33.81233923	    -45.00000000	    -45.00000000	  -2073.28258663	   2065.58478036	    137.04207220	    164.83149075	   1451.24664943	   -331.74382456	      1.22136667	    -18.15832034
      9.96000000	    -37.84893176	    -14.83001400	     24.41750897	   -263.96180515	    827.07857563	      7.20605433	      7.63019055	    -45.00000000	     36.10311016	    -45.00000000	    -45.00000000	   2055.28951285	  -1727.82584292	     33.37595477	     66.75658845	   2179.87358996	     92.36293886	     11.97554425	      2.34327936	     13.44775328	     36.91628873	    -34.06347206	    -45.00000000	    -45.00000000	  -2073.16222066	   2065.39707448	    136.99715957	    165.03118430	   1451.22835815	   -331.81724387	      1.29722003	    -18.21976694
      9.97000000	    -37.76767828	    -14.97072797	     24.58477201	   -263.58795402	    827.07051593	      7.15130503	      7.64491624	    -45.00000000	     36.05174341	    -45.00000000	    -45.00000000	   2055.48969997	  -1727.62672137	     33.22141587	     66.60686270	   2179.90611505	     92.42204465	     12.13673779	      2.29809811	     13.55955300	     37.07113415	    -33.88199373	    -45.00000000	    -45.00000000	  -2073.28243123	   2065.57060957	    136.99584801	    165.21162747	   1451.24895717	   -331.93271410	      1.25623360	    -18.22829521
